<svg xmlns="http://www.w3.org/2000/svg" xmlns:xlink="http://www.w3.org/1999/xlink" version="1.1" x="0px" y="0px" viewBox="0 0 100 125" enable-background="new 0 0 100 100" xml:space="preserve"><g><path fill-rule="evenodd" clip-rule="evenodd" d="M93.634,40.376h-4.262c-0.756,0-1.365-0.611-1.365-1.365v-8.703h-2.573V80.97   c0,1.508-1.224,2.732-2.731,2.732h-1.631v9.188c0,0.754-0.609,1.365-1.365,1.365h-6.5c-0.754,0-1.363-0.611-1.363-1.365v-9.188   H28.138v9.188c0,0.754-0.611,1.365-1.365,1.365h-6.498c-0.754,0-1.365-0.611-1.365-1.365v-9.188h-1.918   c-1.508,0-2.729-1.225-2.729-2.732V30.308h-2.39v8.703c0,0.754-0.612,1.365-1.365,1.365H6.245c-0.754,0-1.365-0.611-1.365-1.365   V27.759c0-0.754,0.611-1.365,1.365-1.365h1.957h2.305h3.755V8.306c0-1.508,1.222-2.73,2.729-2.73h65.711   c1.508,0,2.731,1.223,2.731,2.73v18.088h3.938h2.305h1.957c0.753,0,1.365,0.611,1.365,1.365v11.252   C94.999,39.765,94.387,40.376,93.634,40.376z M67.478,71.509c0,0.752,0.609,1.365,1.365,1.365H78.88   c0.752,0,1.364-0.613,1.364-1.365v-2.346c0-0.754-0.612-1.365-1.364-1.365H68.843c-0.756,0-1.365,0.611-1.365,1.365V71.509z    M19.543,71.509c0,0.752,0.612,1.365,1.365,1.365h10.036c0.754,0,1.366-0.613,1.366-1.365v-2.346c0-0.754-0.612-1.365-1.366-1.365   H20.908c-0.753,0-1.365,0.611-1.365,1.365V71.509z M73.38,13.173c0-0.754-0.611-1.365-1.364-1.365H28.753   c-0.754,0-1.365,0.611-1.365,1.365v3.73c0,0.754,0.611,1.365,1.365,1.365h43.263c0.753,0,1.364-0.611,1.364-1.365V13.173z    M80.524,25.142c0-0.754-0.61-1.365-1.364-1.365H21.148c-0.755,0-1.365,0.611-1.365,1.365v37.561c0,0.754,0.61,1.365,1.365,1.365   H79.16c0.754,0,1.364-0.611,1.364-1.365V25.142z"/></g></svg>