<svg xmlns="http://www.w3.org/2000/svg" xmlns:xlink="http://www.w3.org/1999/xlink" version="1.1" x="0px" y="0px" viewBox="1 -1 100 125" style="enable-background:new 1 -1 100 100;" xml:space="preserve"><g><polygon points="62.6,30.7 51,42.4 39.4,30.7 32.7,37.4 44.4,49 32.7,60.6 39.4,67.3 51,55.6 62.6,67.3 69.3,60.6    57.6,49 69.3,37.4  "/><path d="M51,7.4C28,7.4,9.4,26,9.4,49S28,90.6,51,90.6S92.6,72,92.6,49S74,7.4,51,7.4z M51,81.4   c-17.9,0-32.4-14.6-32.4-32.4S33.1,16.6,51,16.6S83.4,31.1,83.4,49S68.9,81.4,51,81.4z"/></g></svg>