<svg xmlns="http://www.w3.org/2000/svg" xmlns:xlink="http://www.w3.org/1999/xlink" version="1.1" x="0px" y="0px" viewBox="0 0 100 125" enable-background="new 0 0 100 100" xml:space="preserve"><path d="M83.82,52.74c0.122-1.052,0.202-2.139,0.202-3.271c0-15.732-10.899-21.443-18.226-21.443  c-12.196,0-16.608,7.833-20.749,17.325C40.441,56.385,37.09,60.297,32.24,60.297c-4.704,0-8.251-4.496-8.251-10.459  c0-0.529,0.036-1.049,0.092-1.566c8.377-0.729,14.974-7.771,14.974-16.333c0-9.045-7.358-16.404-16.405-16.404  c-9.044,0-16.403,7.359-16.403,16.404c0,6.009,3.257,11.259,8.088,14.116c-0.142,1.155-0.231,2.351-0.231,3.599  c0,12.179,8.087,21.718,18.41,21.718c12.342,0,17.328-9.768,22.129-21.554c3.334-8.002,6.593-11.266,11.245-11.266  c3.064,0,8.25,2.28,8.25,10.826c0,0.512-0.062,1.14-0.166,1.829c-7.849,1.218-13.883,8.005-13.883,16.189  c0,9.046,7.358,16.405,16.402,16.405c9.047,0,16.405-7.359,16.405-16.405C92.897,60.986,89.192,55.438,83.82,52.74z M22.65,22.982  c4.941,0,8.96,4.018,8.96,8.958c0,4.94-4.02,8.959-8.96,8.959c-4.939,0-8.958-4.019-8.958-8.959  C13.692,27,17.711,22.982,22.65,22.982z M76.492,76.355c-4.938,0-8.958-4.02-8.958-8.959c0-4.94,4.02-8.957,8.958-8.957  c4.941,0,8.961,4.017,8.961,8.957C85.453,72.336,81.434,76.355,76.492,76.355z"/></svg>